---
title: TheNewPaulMauriatGrandOrchestra-StillBlueJapan(2013)FLAC+CUE
date: 2023-04-26 08:08:56
categories: 古典音乐、新世纪、纯音雅乐
tags: 纯音雅乐
---
# TheNewPaulMauriatGrandOrchestra-StillBlue[Japan](2013)[FLAC+CUE]

REM GENRE "Easy Listening"
REM DATE 2013
REM DISCID C70B690F
REM COMMENT "ExactAudioCopy v0.95b4"
PERFORMER "The New Paul Mauriat Grand Orchestra"
TITLE "Still Blue (Best Collection Dedicated to Paul
Mauriat)"
FILE "The New Paul Mauriat Grand Orchestra - Still Blue (Best
Collection Dedicated to Paul Mauriat).flac" WAVE
TRACK 01 AUDIO
TITLE "Pegase"
PERFORMER "The New Paul Mauriat Grand Orchestra"
INDEX 01 00:00:00
TRACK 02 AUDIO
TITLE "Minuetto"
PERFORMER "The New Paul Mauriat Grand Orchestra"
INDEX 01 03:40:50
TRACK 03 AUDIO
TITLE "La chanson pour Anna"
PERFORMER "The New Paul Mauriat Grand Orchestra"
INDEX 01 06:18:42
TRACK 04 AUDIO
TITLE "Prelude 59"
PERFORMER "The New Paul Mauriat Grand Orchestra"
INDEX 01 09:17:37
TRACK 05 AUDIO
TITLE "Contigo mi vida"
PERFORMER "The New Paul Mauriat Grand Orchestra"
INDEX 01 13:11:07
TRACK 06 AUDIO
TITLE "Petite melodie"
PERFORMER "The New Paul Mauriat Grand Orchestra"
INDEX 01 16:06:00
TRACK 07 AUDIO
TITLE "Penelope (vocal Eva Gambus)"
PERFORMER "The New Paul Mauriat Grand Orchestra"
INDEX 01 19:10:15
TRACK 08 AUDIO
TITLE "La reine de Saba"
PERFORMER "The New Paul Mauriat Grand Orchestra"
INDEX 01 23:21:12
TRACK 09 AUDIO
TITLE "Piano star"
PERFORMER "The New Paul Mauriat Grand Orchestra"
INDEX 01 26:25:17
TRACK 10 AUDIO
TITLE "Speak softly love (Godfather)"
PERFORMER "The New Paul Mauriat Grand Orchestra"
INDEX 01 30:51:25
TRACK 11 AUDIO
TITLE "L'amour est bleu"
PERFORMER "The New Paul Mauriat Grand Orchestra"
INDEX 01 33:26:60
TRACK 12 AUDIO
TITLE "Toccata"
PERFORMER "The New Paul Mauriat Grand Orchestra"
INDEX 01 36:18:27
TRACK 13 AUDIO
TITLE "Nocturne"
PERFORMER "The New Paul Mauriat Grand Orchestra"
INDEX 01 39:10:35
TRACK 14 AUDIO
TITLE "El bimbo"
PERFORMER "The New Paul Mauriat Grand Orchestra"
INDEX 01 42:04:40
TRACK 15 AUDIO
TITLE "Juste un hommage (vocal Eva Gambus)"
PERFORMER "The New Paul Mauriat Grand Orchestra"
INDEX 01 44:38:20
The New Paul Mauriat Grand Orchestra - Still Blue [Japan]
(2013)[FLAC+CUE].rar: https://url27.ctfile.com/f/9388027-843405237-931242?p=559675
(访问密码: 559675)
原文：[链接](https://blog.sina.com.cn/s/blog_1647c7e76010311lw.html)